<svg xmlns="http://www.w3.org/2000/svg" width="62" height="62" viewBox="0 0 62 62">
  <g id="Group_17058" data-name="Group 17058" transform="translate(-223 -203.161)">
    <circle id="Ellipse_114" data-name="Ellipse 114" cx="31" cy="31" r="31" transform="translate(223 203.161)" fill="#217bd8"/>
    <g id="help_outline_black_24dp_1_" data-name="help_outline_black_24dp (1)" transform="translate(230.84 211)">
      <path id="Path_42605" data-name="Path 42605" d="M0,0H46.321V46.321H0Z" fill="none"/>
      <path id="Path_42606" data-name="Path 42606" d="M21.3,2A19.3,19.3,0,1,0,40.6,21.3,19.308,19.308,0,0,0,21.3,2Zm0,34.741A15.44,15.44,0,1,1,36.741,21.3,15.461,15.461,0,0,1,21.3,36.741Zm-1.93-7.72h3.86v3.86H19.37ZM22.478,9.8a7.724,7.724,0,0,0-8.55,5.385,1.75,1.75,0,0,0,1.679,2.258h.386a1.858,1.858,0,0,0,1.7-1.293,3.864,3.864,0,0,1,4.439-2.47,3.9,3.9,0,0,1,3.03,4.053c-.193,2.586-3.127,3.146-4.729,5.559,0,.019-.019.019-.019.039-.019.039-.039.058-.058.1a6.43,6.43,0,0,0-.483.965c-.019.058-.058.1-.077.154a1.23,1.23,0,0,0-.039.135,7.175,7.175,0,0,0-.386,2.413h3.86a4.1,4.1,0,0,1,.54-2.065c.039-.058.058-.116.1-.174a5.323,5.323,0,0,1,.54-.753c.019-.019.039-.058.058-.077a6.783,6.783,0,0,1,.637-.656c1.853-1.756,4.362-3.185,3.841-6.871A7.865,7.865,0,0,0,22.478,9.8Z" transform="translate(1.86 1.86)" fill="#fff"/>
    </g>
  </g>
</svg>
