<svg xmlns="http://www.w3.org/2000/svg" width="37.353" height="39.731" viewBox="0 0 37.353 39.731">
  <g id="icon" transform="translate(0.75 0.75)">
    <path id="Path_41855" data-name="Path 41855" d="M3.716,40.193H39.568v1.557H3.716Z" transform="translate(-3.716 -3.52)" fill="none" stroke="#fff" stroke-linecap="round" stroke-linejoin="round" stroke-width="1.5" fill-rule="evenodd"/>
    <path id="Path_41856" data-name="Path 41856" d="M6.438,39.318V18.77L11.386,15.2l3.686,2.01v22.1" transform="translate(-3.811 -2.644)" fill="none" stroke="#fff" stroke-linecap="round" stroke-linejoin="round" stroke-width="1.5"/>
    <path id="Path_41857" data-name="Path 41857" d="M6.438,29.433,9.77,27.021v12.71" transform="translate(-3.811 -3.058)" fill="none" stroke="#fff" stroke-linecap="round" stroke-linejoin="round" stroke-width="1.5"/>
    <path id="Path_41858" data-name="Path 41858" d="M11.565,15.2V39.318" transform="translate(-3.991 -2.644)" fill="none" stroke="#fff" stroke-linecap="round" stroke-linejoin="round" stroke-width="1.5"/>
    <path id="Path_41859" data-name="Path 41859" d="M15.386,16.757V10.025l9.392-7.837,4.444,4.27v32.4" transform="translate(-4.125 -2.187)" fill="none" stroke="#fff" stroke-linecap="round" stroke-linejoin="round" stroke-width="1.5"/>
    <path id="Path_41860" data-name="Path 41860" d="M29.725,20.52l4.09-2.713,4.393,2.261V39.409" transform="translate(-4.628 -2.735)" fill="none" stroke="#fff" stroke-linecap="round" stroke-linejoin="round" stroke-width="1.5"/>
    <path id="Path_41861" data-name="Path 41861" d="M33.963,17.807v21.6" transform="translate(-4.776 -2.735)" fill="none" stroke="#fff" stroke-linecap="round" stroke-linejoin="round" stroke-width="1.5"/>
    <path id="Path_41862" data-name="Path 41862" d="M29.725,25.986,32.1,24.73V39.651" transform="translate(-4.628 -2.978)" fill="none" stroke="#fff" stroke-linecap="round" stroke-linejoin="round" stroke-width="1.5"/>
    <path id="Path_41863" data-name="Path 41863" d="M15.386,20.539l5.353-3.617V39.378" transform="translate(-4.125 -2.704)" fill="none" stroke="#fff" stroke-linecap="round" stroke-linejoin="round" stroke-width="1.5"/>
    <path id="Path_41864" data-name="Path 41864" d="M25.119,2.187V38.861" transform="translate(-4.466 -2.187)" fill="none" stroke="#fff" stroke-linecap="round" stroke-linejoin="round" stroke-width="1.5"/>
    <path id="Path_41865" data-name="Path 41865" d="M15.252,20.478V17.213L11.565,15.2V39.318h3.686Z" transform="translate(-3.991 -2.644)" fill="#fff" fill-rule="evenodd"/>
    <path id="Path_41866" data-name="Path 41866" d="M25.119,2.187V38.861h4.444V6.458Z" transform="translate(-4.466 -2.187)" fill="#fff" fill-rule="evenodd"/>
    <path id="Path_41867" data-name="Path 41867" d="M33.963,17.807v21.6h4.393V20.067Z" transform="translate(-4.776 -2.735)" fill="#fff" fill-rule="evenodd"/>
    <path id="Path_41868" data-name="Path 41868" d="M9.77,39.732V27.021L6.438,29.433v10.3Z" transform="translate(-3.811 -3.058)" fill="#fff" fill-rule="evenodd"/>
    <path id="Path_41869" data-name="Path 41869" d="M15.386,20.539V39.378h5.353V16.922Z" transform="translate(-4.125 -2.704)" fill="#fff" fill-rule="evenodd"/>
    <path id="Path_41870" data-name="Path 41870" d="M29.725,25.986V39.651H32.1V24.73Z" transform="translate(-4.628 -2.978)" fill="#fff" fill-rule="evenodd"/>
  </g>
</svg>
