<svg xmlns="http://www.w3.org/2000/svg" width="90.44" height="96.34" viewBox="0 0 90.44 96.34">
  <g id="icon" transform="translate(0.75 0.75)">
    <path id="Path_41855" data-name="Path 41855" d="M3.716,40.193h88.94v3.863H3.716Z" transform="translate(-3.716 50.784)" fill="none" stroke="#f8f8f8" stroke-linecap="round" stroke-linejoin="round" stroke-width="1.5" fill-rule="evenodd"/>
    <path id="Path_41856" data-name="Path 41856" d="M6.438,75.024V24.052L18.714,15.2l9.145,4.985V75.024" transform="translate(0.078 15.953)" fill="none" stroke="#f8f8f8" stroke-linecap="round" stroke-linejoin="round" stroke-width="1.5"/>
    <path id="Path_41857" data-name="Path 41857" d="M6.438,33l8.268-5.982V58.552" transform="translate(0.078 32.425)" fill="none" stroke="#f8f8f8" stroke-linecap="round" stroke-linejoin="round" stroke-width="1.5"/>
    <path id="Path_41858" data-name="Path 41858" d="M11.565,15.2V75.024" transform="translate(7.225 15.953)" fill="none" stroke="#f8f8f8" stroke-linecap="round" stroke-linejoin="round" stroke-width="1.5"/>
    <path id="Path_41859" data-name="Path 41859" d="M15.386,38.33v-16.7l23.3-19.442L49.709,12.781V93.166" transform="translate(12.549 -2.187)" fill="none" stroke="#f8f8f8" stroke-linecap="round" stroke-linejoin="round" stroke-width="1.5"/>
    <path id="Path_41860" data-name="Path 41860" d="M29.725,24.537l10.147-6.73,10.9,5.608V71.4" transform="translate(32.534 19.582)" fill="none" stroke="#f8f8f8" stroke-linecap="round" stroke-linejoin="round" stroke-width="1.5"/>
    <path id="Path_41861" data-name="Path 41861" d="M33.963,17.807V71.4" transform="translate(38.442 19.582)" fill="none" stroke="#f8f8f8" stroke-linecap="round" stroke-linejoin="round" stroke-width="1.5"/>
    <path id="Path_41862" data-name="Path 41862" d="M29.725,27.846l5.888-3.116V61.745" transform="translate(32.534 29.232)" fill="none" stroke="#f8f8f8" stroke-linecap="round" stroke-linejoin="round" stroke-width="1.5"/>
    <path id="Path_41863" data-name="Path 41863" d="M15.386,25.895l13.278-8.973V72.631" transform="translate(12.549 18.349)" fill="none" stroke="#f8f8f8" stroke-linecap="round" stroke-linejoin="round" stroke-width="1.5"/>
    <path id="Path_41864" data-name="Path 41864" d="M25.119,2.187V93.166" transform="translate(26.115 -2.187)" fill="none" stroke="#f8f8f8" stroke-linecap="round" stroke-linejoin="round" stroke-width="1.5"/>
    <path id="Path_41865" data-name="Path 41865" d="M20.71,28.289v-8.1L11.565,15.2V75.024H20.71Z" transform="translate(7.225 15.953)" fill="#f8f8f8" fill-rule="evenodd"/>
    <path id="Path_41866" data-name="Path 41866" d="M25.119,2.187V93.166H36.143V12.781Z" transform="translate(26.115 -2.187)" fill="#f8f8f8" fill-rule="evenodd"/>
    <path id="Path_41867" data-name="Path 41867" d="M33.963,17.807V71.4h10.9V23.415Z" transform="translate(38.442 19.582)" fill="#f8f8f8" fill-rule="evenodd"/>
    <path id="Path_41868" data-name="Path 41868" d="M14.705,58.552V27.021L6.438,33V58.552Z" transform="translate(0.078 32.425)" fill="#f8f8f8" fill-rule="evenodd"/>
    <path id="Path_41869" data-name="Path 41869" d="M15.386,25.895V72.631H28.664V16.922Z" transform="translate(12.549 18.349)" fill="#f8f8f8" fill-rule="evenodd"/>
    <path id="Path_41870" data-name="Path 41870" d="M29.725,27.846v33.9h5.888V24.73Z" transform="translate(32.534 29.232)" fill="#f8f8f8" fill-rule="evenodd"/>
  </g>
</svg>
