<svg xmlns="http://www.w3.org/2000/svg" width="33.663" height="35.797" viewBox="0 0 33.663 35.797">
  <g id="icon" transform="translate(0.75 0.75)">
    <path id="Path_41855" data-name="Path 41855" d="M3.716,40.193H35.879v1.4H3.716Z" transform="translate(-3.716 -7.294)" fill="none" stroke="#8d8d8d" stroke-linecap="round" stroke-linejoin="round" stroke-width="1.5" fill-rule="evenodd"/>
    <path id="Path_41856" data-name="Path 41856" d="M6.438,36.836V18.4l4.439-3.2,3.307,1.8v19.83" transform="translate(-4.081 -3.936)" fill="none" stroke="#8d8d8d" stroke-linecap="round" stroke-linejoin="round" stroke-width="1.5"/>
    <path id="Path_41857" data-name="Path 41857" d="M6.438,29.185l2.99-2.163v11.4" transform="translate(-4.081 -5.524)" fill="none" stroke="#8d8d8d" stroke-linecap="round" stroke-linejoin="round" stroke-width="1.5"/>
    <path id="Path_41858" data-name="Path 41858" d="M11.565,15.2V36.836" transform="translate(-4.77 -3.936)" fill="none" stroke="#8d8d8d" stroke-linecap="round" stroke-linejoin="round" stroke-width="1.5"/>
    <path id="Path_41859" data-name="Path 41859" d="M15.386,15.257V9.218l8.426-7.031L27.8,6.018V35.087" transform="translate(-5.284 -2.187)" fill="none" stroke="#8d8d8d" stroke-linecap="round" stroke-linejoin="round" stroke-width="1.5"/>
    <path id="Path_41860" data-name="Path 41860" d="M29.725,20.24l3.669-2.434,3.941,2.028V37.186" transform="translate(-7.21 -4.286)" fill="none" stroke="#8d8d8d" stroke-linecap="round" stroke-linejoin="round" stroke-width="1.5"/>
    <path id="Path_41861" data-name="Path 41861" d="M33.963,17.807V37.186" transform="translate(-7.78 -4.286)" fill="none" stroke="#8d8d8d" stroke-linecap="round" stroke-linejoin="round" stroke-width="1.5"/>
    <path id="Path_41862" data-name="Path 41862" d="M29.725,25.857l2.129-1.127V38.116" transform="translate(-7.21 -5.216)" fill="none" stroke="#8d8d8d" stroke-linecap="round" stroke-linejoin="round" stroke-width="1.5"/>
    <path id="Path_41863" data-name="Path 41863" d="M15.386,20.167l4.8-3.245V37.068" transform="translate(-5.284 -4.167)" fill="none" stroke="#8d8d8d" stroke-linecap="round" stroke-linejoin="round" stroke-width="1.5"/>
    <path id="Path_41864" data-name="Path 41864" d="M25.119,2.187v32.9" transform="translate(-6.591 -2.187)" fill="none" stroke="#8d8d8d" stroke-linecap="round" stroke-linejoin="round" stroke-width="1.5"/>
    <path id="Path_41865" data-name="Path 41865" d="M14.872,19.935V17.006l-3.307-1.8V36.836h3.307Z" transform="translate(-4.77 -3.936)" fill="#8d8d8d" fill-rule="evenodd"/>
    <path id="Path_41866" data-name="Path 41866" d="M25.119,2.187v32.9h3.986V6.018Z" transform="translate(-6.591 -2.187)" fill="#8d8d8d" fill-rule="evenodd"/>
    <path id="Path_41867" data-name="Path 41867" d="M33.963,17.807V37.186H37.9V19.835Z" transform="translate(-7.78 -4.286)" fill="#8d8d8d" fill-rule="evenodd"/>
    <path id="Path_41868" data-name="Path 41868" d="M9.427,38.424v-11.4l-2.99,2.163v9.239Z" transform="translate(-4.081 -5.524)" fill="#8d8d8d" fill-rule="evenodd"/>
    <path id="Path_41869" data-name="Path 41869" d="M15.386,20.167v16.9h4.8V16.922Z" transform="translate(-5.284 -4.167)" fill="#8d8d8d" fill-rule="evenodd"/>
    <path id="Path_41870" data-name="Path 41870" d="M29.725,25.857V38.116h2.129V24.73Z" transform="translate(-7.21 -5.216)" fill="#8d8d8d" fill-rule="evenodd"/>
  </g>
</svg>
