<svg xmlns="http://www.w3.org/2000/svg" width="33.045" height="38.86" viewBox="0 0 33.045 38.86">
  <g id="icon_" data-name="icon " style="isolation: isolate">
    <path id="Path_41853" data-name="Path 41853" d="M15.171,23.8v9.276l10.2-9.276V31.5h3.016l1.735-17.587h3.13L34.987,31.5H38v9.953H4.958V33.071Zm2.8,13.77h4.58V35.39h-4.58Zm-10.2,0h4.58V35.39H7.774v2.175Z" transform="translate(-4.958 -2.594)" fill="#fff"/>
    <path id="Path_41854" data-name="Path 41854" d="M16.192,6.419a2.689,2.689,0,0,1,.91.158,4.722,4.722,0,0,1,9.118-1.3h.1A2.9,2.9,0,0,1,29.165,7.7a1.913,1.913,0,0,1,.512-.072,1.757,1.757,0,1,1-1.423,2.766,2.861,2.861,0,0,1-1.92.749,2.81,2.81,0,0,1-1.465-.418,4.686,4.686,0,0,1-6.088-.029,2.878,2.878,0,0,1-5.448-1.34A2.87,2.87,0,0,1,16.192,6.419Z" transform="translate(-5.21 -2.242)" fill="#fff"/>
  </g>
</svg>
