<svg id="icon_" data-name="icon " xmlns="http://www.w3.org/2000/svg" width="84.655" height="99.553" viewBox="0 0 84.655 99.553">
  <path id="Path_41853" data-name="Path 41853" d="M31.123,39.227V62.99L57.252,39.227V58.968h7.726l4.446-45.054h8.017l4.446,45.054h7.726v25.5H4.958V62.99ZM38.3,74.5H50.037V68.931H38.3Zm-26.129,0H23.908V68.931H12.173V74.5Z" transform="translate(-4.958 15.087)" fill="#f8f6f6"/>
  <path id="Path_41854" data-name="Path 41854" d="M20.658,12.943a6.888,6.888,0,0,1,2.332.406A12.1,12.1,0,0,1,46.35,10.028H46.6a7.425,7.425,0,0,1,7.288,6.2,4.9,4.9,0,0,1,1.312-.185,4.5,4.5,0,1,1-3.644,7.085,7.329,7.329,0,0,1-4.92,1.919,7.2,7.2,0,0,1-3.753-1.07,12.005,12.005,0,0,1-15.6-.074,7.372,7.372,0,0,1-13.957-3.432A7.351,7.351,0,0,1,20.658,12.943Z" transform="translate(7.475 -2.242)" fill="#f8f6f6"/>
</svg>
