<svg xmlns="http://www.w3.org/2000/svg" width="31.599" height="37.16" viewBox="0 0 31.599 37.16">
  <g id="icon_" data-name="icon " style="isolation: isolate">
    <path id="Path_41853" data-name="Path 41853" d="M14.724,23.363v8.87l9.753-8.87v7.369h2.884l1.66-16.817h2.993l1.66,16.817h2.884v9.518H4.958V32.233ZM17.4,36.53h4.38V34.45H17.4Zm-9.753,0h4.38V34.45H7.651v2.08Z" transform="translate(-4.958 -3.089)" fill="#909090"/>
    <path id="Path_41854" data-name="Path 41854" d="M16.066,6.237a2.571,2.571,0,0,1,.871.152,4.516,4.516,0,0,1,8.719-1.24h.1a2.771,2.771,0,0,1,2.721,2.314,1.83,1.83,0,0,1,.49-.069,1.68,1.68,0,1,1-1.36,2.645,2.736,2.736,0,0,1-1.836.716,2.687,2.687,0,0,1-1.4-.4,4.481,4.481,0,0,1-5.822-.028,2.752,2.752,0,0,1-5.21-1.281A2.744,2.744,0,0,1,16.066,6.237Z" transform="translate(-5.565 -2.242)" fill="#909090"/>
  </g>
</svg>
