<svg xmlns="http://www.w3.org/2000/svg" xmlns:xlink="http://www.w3.org/1999/xlink" width="27.84" height="46.4" viewBox="0 0 27.84 46.4">
  <defs>
    <clipPath id="clip-path">
      <rect id="Rectangle_2532" data-name="Rectangle 2532" width="27.84" height="46.4" transform="translate(0.121)" fill="#fff"/>
    </clipPath>
  </defs>
  <g id="_4" data-name="4" transform="translate(-0.121)" clip-path="url(#clip-path)">
    <path id="Path_42294" data-name="Path 42294" d="M46.979,4.116H43.043V1.8h3.936Z" transform="translate(-24.432 -1.022)" fill="#2c72f5"/>
    <path id="Path_42295" data-name="Path 42295" d="M46.979,7.209H43.043V1.8h3.936Z" transform="translate(-24.432 -1.022)" fill="#2c72f5"/>
    <path id="Path_42296" data-name="Path 42296" d="M3.145,21.167H27.494a.862.862,0,0,0,.862-.862v-1.07a.862.862,0,0,0-.862-.862H3.145a.862.862,0,0,0-.862.862v1.07A.862.862,0,0,0,3.145,21.167Z" transform="translate(-1.231 -10.458)" fill="#2c72f5"/>
    <path id="Path_42297" data-name="Path 42297" d="M55.273,17.951H52.18a1.547,1.547,0,0,1,0,3.093h3.093a1.547,1.547,0,1,0,0-3.093Z" transform="translate(-29.632 -10.218)" fill="#2c72f5"/>
    <path id="Path_42298" data-name="Path 42298" d="M12.018,4.147,13.488,5.91,27.562,7.317a1.547,1.547,0,0,1,1.393,1.539v.92H7.3V5.136A1.547,1.547,0,0,1,8.847,3.59h1.982a1.547,1.547,0,0,1,1.189.557Z" transform="translate(-4.087 -2.043)" fill="#2c72f5"/>
    <path id="Path_42299" data-name="Path 42299" d="M27.562,10.909,13.488,9.5,12.018,7.739a1.547,1.547,0,0,0-1.189-.557H8.848A1.547,1.547,0,0,0,7.3,8.728v3.093H28.817a1.543,1.543,0,0,0-1.255-.912Z" transform="translate(-4.087 -4.088)" fill="#2c72f5"/>
    <path id="Path_42300" data-name="Path 42300" d="M5.508,25.133v3.093H7.054L9.269,58.5a1.546,1.546,0,0,0,1.543,1.434H23.4A1.546,1.546,0,0,0,24.946,58.5l2.215-30.273h1.547V25.133Z" transform="translate(-3.066 -14.306)" fill="#e7f2ff"/>
    <path id="Path_42301" data-name="Path 42301" d="M46.41,25.133v3.093a.775.775,0,0,1-.775.775h-.825L42.646,58.555a2.3,2.3,0,0,1-.6,1.379H44.2A1.546,1.546,0,0,0,45.74,58.5l2.215-30.273H49.5V25.133Z" transform="translate(-23.863 -14.306)" fill="#e7f2ff"/>
    <path id="Path_42302" data-name="Path 42302" d="M9.754,39.246l1.932,26.407a1.546,1.546,0,0,0,1.543,1.434H25.82a1.546,1.546,0,0,0,1.543-1.434l1.932-26.407a8.368,8.368,0,0,1-9,.442L18.75,38.8a8.369,8.369,0,0,0-9,.442Z" transform="translate(-5.483 -21.46)" fill="#2c72f5"/>
    <path id="Path_42303" data-name="Path 42303" d="M44.482,42.664,42.646,67.752a2.3,2.3,0,0,1-.6,1.379H44.2A1.546,1.546,0,0,0,45.741,67.7l1.933-26.407a8.353,8.353,0,0,1-3.192,1.375Z" transform="translate(-23.863 -23.502)" fill="#2c72f5"/>
    <path id="Path_42304" data-name="Path 42304" d="M25.639,6.96V6.813A2.312,2.312,0,0,0,23.55,4.505l-.231-.023V1.547h.775a.775.775,0,0,0,0-1.547H16.359a.775.775,0,0,0-.314.066L9.618,2.922l-1.1-1.314A2.313,2.313,0,0,0,6.741.775H4.76A2.322,2.322,0,0,0,2.439,3.1V6.962a2.314,2.314,0,0,0-.775,4.5v2.462a.775.775,0,0,0,.775.775h.828L5.429,44.253A2.33,2.33,0,0,0,7.744,46.4H20.335a2.33,2.33,0,0,0,2.314-2.151l2.163-29.556h.828a.775.775,0,0,0,.775-.775V11.459a2.314,2.314,0,0,0-.775-4.5ZM19.383,1.547h2.39v2.78l-2.39-.239Zm-2.86,0h1.313V3.933l-5.455-.545ZM3.987,3.093a.775.775,0,0,1,.775-.775H6.744a.77.77,0,0,1,.594.278L8.808,4.359a.775.775,0,0,0,.517.274L23.4,6.04a.77.77,0,0,1,.7.769v.148H3.985Zm17.12,41.043a.775.775,0,0,1-.771.717H7.744a.775.775,0,0,1-.771-.717L5.073,18.2a7.611,7.611,0,0,1,7.807-.185l1.548.885a9.167,9.167,0,0,0,8.5.294Zm3.76-30.989h-.775a.775.775,0,0,0-.772.717l-.254,3.471a7.609,7.609,0,0,1-7.87.224l-1.547-.887a9.179,9.179,0,0,0-8.7-.2l-.191-2.61a.775.775,0,0,0-.772-.717H3.209V11.6H24.865Zm.775-3.093H2.439a.775.775,0,0,1,0-1.547h23.2a.775.775,0,0,1,0,1.547Z" transform="translate(0.002 0)" fill="#1f1f1f"/>
    <path id="Path_42305" data-name="Path 42305" d="M20.505,71.643c.514,0,.931-.313.931-.7s-.417-.7-.931-.7-.931.313-.931.7S19.991,71.643,20.505,71.643Z" transform="translate(-11.073 -39.985)" fill="#1f1f1f"/>
    <path id="Path_42306" data-name="Path 42306" d="M40.808,87.854a.7.7,0,1,0-.7-.7A.7.7,0,0,0,40.808,87.854Z" transform="translate(-22.762 -49.213)" fill="#1f1f1f"/>
    <path id="Path_42307" data-name="Path 42307" d="M33.241,58.674a.7.7,0,1,0-.7-.7A.7.7,0,0,0,33.241,58.674Z" transform="translate(-18.455 -32.603)" fill="#1f1f1f"/>
  </g>
</svg>
