<svg xmlns="http://www.w3.org/2000/svg" xmlns:xlink="http://www.w3.org/1999/xlink" width="25.349" height="46.403" viewBox="0 0 25.349 46.403">
  <defs>
    <clipPath id="clip-path">
      <rect id="Rectangle_2523" data-name="Rectangle 2523" width="25.349" height="46.403" transform="translate(0.445)" fill="#fff"/>
    </clipPath>
  </defs>
  <g id="_2" data-name="2" transform="translate(-0.445)" clip-path="url(#clip-path)">
    <path id="Path_42177" data-name="Path 42177" d="M23.063,12.3H4.517l-2.9,6.721v32.7c0,.555.335,1,.747,1H25.212c.413,0,.747-.45.747-1v-32.7Z" transform="translate(-0.669 -7.003)" fill="#e7f2ff"/>
    <path id="Path_42178" data-name="Path 42178" d="M20.167,63.88a5.679,5.679,0,0,0-2.321-.443c-4.057,0-4.057,3.082-8.113,3.082s-4.056-3.082-8.112-3.082V80.825c0,.555.335,1,.747,1h17.8V63.88Z" transform="translate(-0.669 -36.107)" fill="#2c72f5"/>
    <path id="Path_42179" data-name="Path 42179" d="M44.668,27.9V61.6h5.045c.413,0,.747-.45.747-1V27.9Z" transform="translate(-25.171 -15.879)" fill="#e7f2ff"/>
    <path id="Path_42180" data-name="Path 42180" d="M26.542,1.574H8.681c-.189,0-.345.206-.345.461V9.556H26.882V2.036C26.884,1.782,26.731,1.574,26.542,1.574Z" transform="translate(-4.491 -0.896)" fill="#2c72f5"/>
    <path id="Path_42181" data-name="Path 42181" d="M46.354,1.574H43.141V9.556h3.554V2.036C46.7,1.782,46.541,1.574,46.354,1.574Z" transform="translate(-24.302 -0.896)" fill="#2c72f5"/>
    <path id="Path_42182" data-name="Path 42182" d="M23.063,12.3H4.517l-2.9,6.721H25.959Z" transform="translate(-0.669 -7.003)" fill="#2c72f5"/>
    <path id="Path_42183" data-name="Path 42183" d="M50.46,19.023l-2.9-6.721-2.9,6.721Z" transform="translate(-25.171 -7.003)" fill="#e7f2ff"/>
    <path id="Path_42184" data-name="Path 42184" d="M39.983,27.9H36.438V61.6h3.546Z" transform="translate(-20.486 -15.881)" fill="#e7f2ff"/>
    <path id="Path_42185" data-name="Path 42185" d="M36.438,81.83h3.546V63.88a5.679,5.679,0,0,0-2.321-.443,6.556,6.556,0,0,0-1.224.108Z" transform="translate(-20.486 -36.107)" fill="#2c72f5"/>
    <path id="Path_42186" data-name="Path 42186" d="M39.333,12.3l-2.9,6.721h3.546l2.9-6.721Z" transform="translate(-20.486 -7.003)" fill="#2c72f5"/>
    <path id="Path_42187" data-name="Path 42187" d="M12.147,45.016a.284.284,0,0,1-.265.21c-.1,0-.193-.049-.258-.21l-.692-1.748v3.545a.4.4,0,0,1-.783,0v-5.06c0-.388.193-.526.391-.526.283,0,.409.081.608.56l.741,1.813.741-1.813c.2-.477.331-.56.614-.56.2,0,.391.137.391.526v5.059a.4.4,0,0,1-.783,0V43.331Z" transform="translate(-5.523 -23.466)" fill="#2c72f5"/>
    <path id="Path_42188" data-name="Path 42188" d="M19.915,41.552c0-.227.193-.324.391-.324s.391.1.391.324v5.261a.4.4,0,0,1-.783,0Z" transform="translate(-11.081 -23.467)" fill="#2c72f5"/>
    <path id="Path_42189" data-name="Path 42189" d="M23.751,47.145a.325.325,0,0,1-.345-.332V41.552c0-.227.193-.324.391-.324s.391.1.391.324v4.67h1.469c.156,0,.235.227.235.461s-.078.461-.235.461Z" transform="translate(-13.069 -23.467)" fill="#2c72f5"/>
    <path id="Path_42190" data-name="Path 42190" d="M30.173,41.552c0-.227.193-.324.391-.324s.391.1.391.324v2.21l1.3-2.38a.238.238,0,0,1,.215-.154.571.571,0,0,1,.451.542.391.391,0,0,1-.048.2L31.8,43.786l1.312,2.687a.4.4,0,0,1,.043.186.547.547,0,0,1-.47.526.3.3,0,0,1-.271-.2L31.28,44.676l-.325.551v1.587a.4.4,0,0,1-.783,0V41.552Z" transform="translate(-16.92 -23.467)" fill="#2c72f5"/>
    <path id="Path_42191" data-name="Path 42191" d="M25.291,37.244c.279,0,.506-.3.506-.68V12.02q0-.043,0-.089a.217.217,0,0,0,0-.023c0-.021-.005-.043-.009-.064s-.006-.025-.009-.037-.007-.032-.012-.047a.8.8,0,0,0-.03-.081L22.9,5.12V1.141C22.9.512,22.52,0,22.052,0H4.191c-.468,0-.848.512-.848,1.141V5.12L.515,11.678v.005a.788.788,0,0,0-.028.075v0c-.007.024-.013.049-.019.074a.107.107,0,0,1,0,.02q-.006.03-.009.062a.06.06,0,0,1,0,.021c0,.026,0,.052,0,.078v32.7c0,.929.56,1.684,1.253,1.684H24.545c.689,0,1.253-.756,1.253-1.684V39.728c0-.376-.227-.68-.506-.68s-.506.3-.506.68v4.99c0,.179-.108.325-.242.325H20V12.7h4.782V36.566C24.785,36.94,25.012,37.244,25.291,37.244ZM4.355,1.36H21.889V4.623H4.355ZM18.993,45.044H1.7c-.133,0-.242-.146-.242-.325V28.028a5.621,5.621,0,0,1,3.3,1.435,6.318,6.318,0,0,0,4.305,1.629,6.317,6.317,0,0,0,4.305-1.629,5.829,5.829,0,0,1,5.623-1.177V45.044Zm.215-33.7H6.642c-.279,0-.506.3-.506.68s.227.68.506.68H18.993V26.887a6.512,6.512,0,0,0-1.815-.237,6.319,6.319,0,0,0-4.305,1.629,5.543,5.543,0,0,1-3.808,1.453,5.545,5.545,0,0,1-3.808-1.453,6.38,6.38,0,0,0-3.8-1.613V12.7H4.289c.279,0,.506-.3.506-.68s-.227-.68-.506-.68H1.83L4.14,5.983H21.517Zm1.169,0L22.4,6.659l2.018,4.681Z" transform="translate(-0.002)" fill="#1f1f1f"/>
  </g>
</svg>
