<svg xmlns="http://www.w3.org/2000/svg" xmlns:xlink="http://www.w3.org/1999/xlink" width="25.55" height="46.4" viewBox="0 0 25.55 46.4">
  <defs>
    <clipPath id="clip-path">
      <rect id="Rectangle_2528" data-name="Rectangle 2528" width="25.55" height="46.4" transform="translate(0.16)" fill="#fff"/>
    </clipPath>
  </defs>
  <g id="_5" data-name="5" transform="translate(-0.16)" clip-path="url(#clip-path)">
    <path id="Path_42243" data-name="Path 42243" d="M1.736,16.7l12.195-.925,11.994.925V47.662L13.753,48.5,1.734,47.662Z" transform="translate(-0.896 -8.982)" fill="#2c72f5" fill-rule="evenodd"/>
    <path id="Path_42244" data-name="Path 42244" d="M1.738,11.477H25.927L23.012,7.169,13.581,6.6l-8.927.573Zm0,30.958H25.927l-2.916,4.308-9.387.791-8.971-.791Z" transform="translate(-0.898 -3.754)" fill="#e7f2ff" fill-rule="evenodd"/>
    <path id="Path_42245" data-name="Path 42245" d="M48.931,12.234h2.2L48.213,7.926h-2.2Zm0,30.958h2.2L48.213,47.5h-2.2Z" transform="translate(-26.102 -4.511)" fill="#e7f2ff" fill-rule="evenodd"/>
    <path id="Path_42246" data-name="Path 42246" d="M6.733,43.888H25.091a1.367,1.367,0,0,1,0,2.733H6.733a1.367,1.367,0,0,1,0-2.733Zm0-39.574H25.091a1.367,1.367,0,0,0,0-2.733H6.733a1.367,1.367,0,0,0,0,2.733Z" transform="translate(-2.977 -0.899)" fill="#e7f2ff" fill-rule="evenodd"/>
    <path id="Path_42247" data-name="Path 42247" d="M46.016,43.888h2.2a1.367,1.367,0,0,1,0,2.733h-2.2a1.367,1.367,0,0,0,0-2.733Zm0-39.574h2.2a1.367,1.367,0,0,0,0-2.733h-2.2a1.367,1.367,0,0,1,0,2.733Z" transform="translate(-26.102 -0.899)" fill="#e7f2ff" fill-rule="evenodd"/>
    <path id="Path_42248" data-name="Path 42248" d="M17.609,43.092a9.254,9.254,0,1,0-6.527-2.709,9.236,9.236,0,0,0,6.527,2.709Z" transform="translate(-4.674 -14.014)" fill="#e7f2ff" fill-rule="evenodd"/>
    <path id="Path_42249" data-name="Path 42249" d="M28.361,24.615a9.236,9.236,0,0,1,0,18.473,9.139,9.139,0,0,1-1.1-.064,9.238,9.238,0,0,0,0-18.345,9.705,9.705,0,0,1,1.1-.064Z" transform="translate(-15.427 -14.011)" fill="#e7f2ff" fill-rule="evenodd"/>
    <path id="Path_42250" data-name="Path 42250" d="M28.431,37.484l-4.863,6.561c-.113.152-.306.067-.262-.121l.876-3.8c.1-.416-.075-.686-.547-.686H21.251c-.416,0-.552-.2-.285-.565l4.863-6.561c.129-.172.313-.1.262.121l-.876,3.8c-.1.445.075.686.547.686h2.384c.521,0,.581.165.285.565Z" transform="translate(-11.764 -18.335)" fill="#2c72f5" fill-rule="evenodd"/>
    <path id="Path_42251" data-name="Path 42251" d="M52.785,17.926h2.2V48.884h-2.2Z" transform="translate(-29.955 -10.204)" fill="#2c72f5" fill-rule="evenodd"/>
    <path id="Path_42252" data-name="Path 42252" d="M4.359,38a.68.68,0,1,1,0,1.359H2.119l2,2.949H21.759l2-2.949H7.44A.68.68,0,1,1,7.44,38H24.354V8.4H21.515a.68.68,0,1,1,0-1.359h2.24l-2-2.949H4.115l-2,2.949H18.435a.68.68,0,0,1,0,1.359H1.521V38H4.359ZM16.916,22.409a.68.68,0,0,1,1.359,0v.38h.383a.681.681,0,0,1,0,1.362h-.383v.38a.68.68,0,1,1-1.359,0v-.38h-.383a.681.681,0,1,1,0-1.362h.383Zm-9-7.658a.68.68,0,0,1,1.359,0v.38h.383a.681.681,0,0,1,0,1.362H9.281v.38a.68.68,0,1,1-1.359,0v-.38H7.539a.681.681,0,1,1,0-1.362h.383ZM6.911,35.611a.681.681,0,1,1,0-1.362H18.96a.681.681,0,0,1,0,1.362ZM9.249,32.97a.68.68,0,1,1,0-1.359h7.373a.68.68,0,0,1,0,1.359ZM12.936,9.923a9.885,9.885,0,1,1-3.8.753,9.915,9.915,0,0,1,3.8-.753Zm6.053,3.866a8.531,8.531,0,1,0,1.857,2.777,8.562,8.562,0,0,0-1.857-2.777ZM17.6,19.03l-5.666,7.649a.678.678,0,0,1-1.206-.555l1-4.344H8.785a.681.681,0,0,1-.511-1.128L13.94,13a.679.679,0,0,1,1.206.555l-1,4.344h2.939A.681.681,0,0,1,17.6,19.03Zm-4.823,4.233,2.965-4H13.3a.679.679,0,0,1-.66-.83l.462-2.014-2.964,4h2.443a.679.679,0,0,1,.66.83ZM22.116,2.733a.687.687,0,0,0,0-1.374H3.759a.676.676,0,0,0-.483.2.686.686,0,0,0,.483,1.171ZM2.687,3.791a2.208,2.208,0,0,1-.375-.3A2.048,2.048,0,0,1,3.759,0H22.116a2.045,2.045,0,0,1,1.446,3.494,2.21,2.21,0,0,1-.375.3l2.369,3.5a.68.68,0,0,1,.154.431V38.68a.686.686,0,0,1-.154.431l-2.369,3.5a2.108,2.108,0,0,1,.375.3A2.045,2.045,0,0,1,22.116,46.4H3.759a2.045,2.045,0,0,1-1.446-3.489,2.107,2.107,0,0,1,.375-.3l-2.369-3.5a.686.686,0,0,1-.154-.431V7.722a.681.681,0,0,1,.154-.431ZM3.759,43.668a.688.688,0,0,0,0,1.375H22.116a.689.689,0,0,0,0-1.374Z" transform="translate(-0.002 0)" fill="#1f1f1f"/>
  </g>
</svg>
