<svg xmlns="http://www.w3.org/2000/svg" width="87.407" height="96.683" viewBox="0 0 87.407 96.683">
  <g id="icon_" data-name="icon   " transform="translate(0 -20.951)" opacity="0.031">
    <path id="Path_41851" data-name="Path 41851" d="M44.166,9.029a6.926,6.926,0,0,0-6.776,7.039v2.968a6.154,6.154,0,0,0,1.75,4.318,5.659,5.659,0,0,0,1.595,1.106,27.984,27.984,0,0,1-4.29,11.927c-2.169,3.659-4.689,6.892-4.907,11.151,0,.032,0,.072,0,.107v47.6a8.692,8.692,0,0,0,3.094,6.7,14.947,14.947,0,0,0,6.328,2.882A49.053,49.053,0,0,0,52.3,105.7a49.05,49.05,0,0,0,11.346-.879,14.944,14.944,0,0,0,6.328-2.882,8.692,8.692,0,0,0,3.094-6.7v-47.6c0-.032,0-.072,0-.107-.219-4.258-2.742-7.493-4.911-11.151a27.976,27.976,0,0,1-4.286-11.927,5.673,5.673,0,0,0,1.594-1.106,6.153,6.153,0,0,0,1.751-4.318V16.068a6.929,6.929,0,0,0-6.781-7.039Zm15.537,16a32.8,32.8,0,0,0,4.845,13.525c2.289,3.862,4.188,6.651,4.319,9.206V59.834c-.286.008-.554.008-.871.04a12.007,12.007,0,0,0-7.352,3.584c-1.48,1.487-2.513,2.924-3.485,3.819a4.1,4.1,0,0,1-3.23,1.329c-2.627,0-3.161-.431-4.286-1.127a10.58,10.58,0,0,0-5.955-1.754,13.4,13.4,0,0,0-7.947,3.1V47.757c.13-2.555,2.03-5.344,4.319-9.207a32.8,32.8,0,0,0,4.845-13.525H59.7Z" transform="translate(14.335 11.922)" fill="#4b4b4b"/>
    <path id="Path_41852" data-name="Path 41852" d="M22.309,18.766V21.64H12.125v6.036H22.309V30.55h3v6.48H24.153a6.4,6.4,0,0,0-3.991,1.437A4.093,4.093,0,0,0,18.4,41.524v1.8a8.9,8.9,0,0,0-6.633,8.439v36.4a4.315,4.315,0,0,0,4.4,4.181H40.832a4.315,4.315,0,0,0,4.4-4.181v-36.4a8.9,8.9,0,0,0-6.661-8.439v-1.8a4.054,4.054,0,0,0-1.761-3.057,6.433,6.433,0,0,0-3.991-1.437H31.694V30.55h2.973V18.766Zm1.954,1.907h8.422v7.969H24.263ZM13.722,56.5h29.56V78.783H13.722V56.5Z" transform="translate(-11.768 24.777)" fill="#4b4b4b" fill-rule="evenodd"/>
  </g>
</svg>
