<svg xmlns="http://www.w3.org/2000/svg" xmlns:xlink="http://www.w3.org/1999/xlink" width="51.277" height="46.4" viewBox="0 0 51.277 46.4">
  <defs>
    <clipPath id="clip-path">
      <rect id="Rectangle_2530" data-name="Rectangle 2530" width="51.277" height="46.4" fill="#fff"/>
    </clipPath>
  </defs>
  <g id="_1" data-name="1" clip-path="url(#clip-path)">
    <path id="Path_42266" data-name="Path 42266" d="M66.367,40l8.961-8.961-2.456-2.456L63.91,37.542Z" transform="translate(-36.379 -16.269)" fill="#e7f2ff"/>
    <path id="Path_42267" data-name="Path 42267" d="M94.284,2.7a3.908,3.908,0,0,0-5.533.394L79.346,13.938a1.077,1.077,0,0,0,.052,1.469l2.455,2.455a1.077,1.077,0,0,0,1.469.052L94.228,8.461a4.206,4.206,0,0,0,.388-.388A3.848,3.848,0,0,0,94.284,2.7Zm-1.82,4.339a1.584,1.584,0,1,1,.343-.514,1.583,1.583,0,0,1-.343.514Z" transform="translate(-45.015 -0.986)" fill="#2c72f5"/>
    <path id="Path_42268" data-name="Path 42268" d="M9.644,50.335a4.179,4.179,0,0,1,3.068-6.16h0A4.179,4.179,0,0,1,17.8,39.537h0a4.179,4.179,0,0,1,6.419-2.486h0a4.179,4.179,0,0,1,6.883,0h0a4.179,4.179,0,0,1,6.419,2.486h0a4.179,4.179,0,0,1,5.086,4.637,4.179,4.179,0,0,1,3.068,6.16H9.644Z" transform="translate(-5.192 -20.06)" fill="#e7f2ff"/>
    <path id="Path_42269" data-name="Path 42269" d="M13.055,51.765a4.179,4.179,0,0,1,3.068-6.16h0a4.179,4.179,0,0,1,5.086-4.637h0a4.143,4.143,0,0,1,2.362-2.849,4.179,4.179,0,0,0-5.77,2.849h0A4.179,4.179,0,0,0,12.715,45.6h0a4.179,4.179,0,0,0-3.068,6.16Z" transform="translate(-5.194 -21.491)" fill="#e7f2ff"/>
    <path id="Path_42270" data-name="Path 42270" d="M26.167,68.68,6.5,70.742a13.959,13.959,0,0,0,8.368,10.813,1.676,1.676,0,0,1,.986,1.524,1.672,1.672,0,0,0,1.671,1.671H34.808a1.672,1.672,0,0,0,1.671-1.671,1.676,1.676,0,0,1,.986-1.524,13.957,13.957,0,0,0,8.368-10.813Z" transform="translate(-3.7 -39.093)" fill="#2c72f5"/>
    <path id="Path_42271" data-name="Path 42271" d="M18.86,83.077a1.676,1.676,0,0,0-.986-1.524A13.958,13.958,0,0,1,9.506,70.74l18.164-1.9-1.5-.158L6.5,70.741a13.959,13.959,0,0,0,8.368,10.813,1.676,1.676,0,0,1,.986,1.524,1.672,1.672,0,0,0,1.671,1.671h3.006a1.672,1.672,0,0,1-1.671-1.672Z" transform="translate(-3.7 -39.092)" fill="#2c72f5"/>
    <path id="Path_42272" data-name="Path 42272" d="M43.107,63.889H3.774a2.063,2.063,0,0,0-2.063,2.063h0a2.063,2.063,0,0,0,2.063,2.063H43.107a2.063,2.063,0,0,0,2.063-2.063h0a2.062,2.062,0,0,0-2.063-2.063Z" transform="translate(-0.974 -36.366)" fill="#e7f2ff"/>
    <path id="Path_42273" data-name="Path 42273" d="M4.717,65.953A2.062,2.062,0,0,1,6.78,63.889H3.774a2.063,2.063,0,0,0-2.063,2.063h0a2.063,2.063,0,0,0,2.063,2.063H6.78a2.063,2.063,0,0,1-2.063-2.061Z" transform="translate(-0.974 -36.366)" fill="#e7f2ff"/>
    <path id="Path_42274" data-name="Path 42274" d="M32.7,85.793a.752.752,0,0,0,.752-.752V83.6a.752.752,0,0,0-1.5,0v1.442a.752.752,0,0,0,.751.752Z" transform="translate(-18.184 -47.168)" fill="#1f1f1f"/>
    <path id="Path_42275" data-name="Path 42275" d="M69.689,85.793a.752.752,0,0,0,.752-.752V83.6a.752.752,0,0,0-1.5,0v1.442a.752.752,0,0,0,.751.752Z" transform="translate(-39.24 -47.168)" fill="#1f1f1f"/>
    <path id="Path_42276" data-name="Path 42276" d="M48.6,88.31a3.353,3.353,0,0,0,2.533-1.127A.752.752,0,0,0,50,86.192a1.907,1.907,0,0,1-2.8,0,.752.752,0,1,0-1.132.991A3.352,3.352,0,0,0,48.6,88.31Z" transform="translate(-26.115 -48.916)" fill="#1f1f1f"/>
    <path id="Path_42277" data-name="Path 42277" d="M2.153,32.317a14.106,14.106,0,0,0,1.253,3.737,15.144,15.144,0,0,0,7.469,7.086.927.927,0,0,1,.545.84A2.425,2.425,0,0,0,13.843,46.4H31.125a2.426,2.426,0,0,0,2.423-2.423.927.927,0,0,1,.545-.84,15.144,15.144,0,0,0,7.469-7.086,14.109,14.109,0,0,0,1.252-3.737,2.814,2.814,0,0,0-.664-5.549h-.6a4.925,4.925,0,0,0-3.326-3.256,4.923,4.923,0,0,0-2.615-4.323l1.366-1.367a1.825,1.825,0,0,0,1.846-.328l10.909-9.46a4.657,4.657,0,0,0,.093-6.859l-.03-.027a4.7,4.7,0,0,0-6.6.46l-9.4,10.847a1.835,1.835,0,0,0-.326,1.844l-2.206,2.206a4.92,4.92,0,0,0-5.141-.492,4.93,4.93,0,0,0-7.247,0A4.929,4.929,0,0,0,12.1,18.632a4.929,4.929,0,0,0-5.356,4.88,4.925,4.925,0,0,0-3.326,3.256h-.6a2.814,2.814,0,0,0-.664,5.549Zm38.033,3.128a13.533,13.533,0,0,1-6.716,6.329,2.433,2.433,0,0,0-1.426,2.208.921.921,0,0,1-.92.92H13.842a.921.921,0,0,1-.92-.92A2.434,2.434,0,0,0,11.5,41.775a13.533,13.533,0,0,1-6.715-6.327A12.926,12.926,0,0,1,3.7,32.4H41.265a12.925,12.925,0,0,1-1.08,3.047Zm-5.27-22,9.4-10.847a3.183,3.183,0,0,1,4.462-.328A3.148,3.148,0,0,1,48.738,6.9l-10.9,9.455a.331.331,0,0,1-.445-.016l-2.455-2.455a.328.328,0,0,1-.016-.446ZM34.4,15.48l1.395,1.4-1.789,1.788a4.89,4.89,0,0,0-1.142-.032c-.017-.043-.037-.086-.055-.129a4.947,4.947,0,0,0-.511-.92ZM2.816,28.272h8.271a.752.752,0,0,0,.752-.752.764.764,0,0,0-.752-.752H5.033a3.422,3.422,0,0,1,2.611-1.915.751.751,0,0,0,.639-.846,3.459,3.459,0,0,1,4.17-3.8.751.751,0,0,0,.9-.558,3.457,3.457,0,0,1,5.262-2.039.751.751,0,0,0,1.043-.195,3.456,3.456,0,0,1,5.643,0,.752.752,0,0,0,1.043.195,3.46,3.46,0,0,1,5.263,2.039.76.76,0,0,0,.6.567,3.826,3.826,0,0,0,.875-.093,3.456,3.456,0,0,1,3.594,3.887.752.752,0,0,0,.639.846,3.422,3.422,0,0,1,2.611,1.915H14.1a.768.768,0,0,0-.752.751.752.752,0,0,0,.752.752H42.15a1.311,1.311,0,0,1,0,2.622H2.816a1.311,1.311,0,1,1,0-2.622Z" transform="translate(-0.002 -0.003)" fill="#1f1f1f"/>
    <path id="Path_42278" data-name="Path 42278" d="M104.5,10.678a2.319,2.319,0,1,0-.894-.176A2.336,2.336,0,0,0,104.5,10.678Zm-.588-2.923a.84.84,0,1,1-.24.588.831.831,0,0,1,.24-.588Z" transform="translate(-58.151 -3.42)" fill="#1f1f1f"/>
  </g>
</svg>
