<svg xmlns="http://www.w3.org/2000/svg" xmlns:xlink="http://www.w3.org/1999/xlink" width="16.373" height="46.4" viewBox="0 0 16.373 46.4">
  <defs>
    <clipPath id="clip-path">
      <rect id="Rectangle_2529" data-name="Rectangle 2529" width="16.373" height="46.4" transform="translate(0.699)" fill="#fff"/>
    </clipPath>
  </defs>
  <g id="_3" data-name="3" transform="translate(-0.699)" clip-path="url(#clip-path)">
    <path id="Path_42253" data-name="Path 42253" d="M3.025,27.075l-.435.867a3,3,0,0,0-.317,1.343v.986a5.54,5.54,0,0,0,.585,2.477,5.54,5.54,0,0,1,.42,3.821l-.825,3.3a6.006,6.006,0,0,0-.179,1.456v5.266a3,3,0,0,0,3,3h9.008a3,3,0,0,0,3-3V41.326a6,6,0,0,0-.179-1.456l-.825-3.3a5.54,5.54,0,0,1,.42-3.821,5.539,5.539,0,0,0,.585-2.477v-.986a3,3,0,0,0-.317-1.343l-.433-.867V18.067l.434-.867a3,3,0,0,0,.317-1.343v-1.49a1.5,1.5,0,0,0-.669-1.249l-3.5-2.334a.751.751,0,0,1-.334-.625V6.807H6.778v3.352a.75.75,0,0,1-.334.625l-3.5,2.335a1.5,1.5,0,0,0-.669,1.249v1.491A3,3,0,0,0,2.591,17.2l.434.867Z" transform="translate(-0.896 -3.874)" fill="#e7f2ff"/>
    <path id="Path_42254" data-name="Path 42254" d="M28.1,17.2a3,3,0,0,0,.317-1.343v-1.49a1.5,1.5,0,0,0-.669-1.249l-3.5-2.334a.751.751,0,0,1-.334-.625V6.807H21.832v3.352a.75.75,0,0,0,.334.625l3.5,2.335a1.5,1.5,0,0,1,.669,1.249v1.491a3,3,0,0,1-.317,1.343l-.434.867v9.008l.434.867a3,3,0,0,1,.317,1.343v.986a5.54,5.54,0,0,1-.585,2.477,5.54,5.54,0,0,0-.42,3.821l.825,3.3a6,6,0,0,1,.179,1.456v5.266a3,3,0,0,1-3,3h2.085a3,3,0,0,0,3-3V41.326a6,6,0,0,0-.179-1.456l-.825-3.3a5.541,5.541,0,0,1,.42-3.821,5.539,5.539,0,0,0,.585-2.477v-.986a3,3,0,0,0-.317-1.343l-.434-.867V18.067Z" transform="translate(-12.029 -3.874)" fill="#e7f2ff"/>
    <path id="Path_42255" data-name="Path 42255" d="M16.8,1.578H10.7a1.45,1.45,0,0,0-1.45,1.45V5.357a.725.725,0,0,0,.725.725h7.558a.725.725,0,0,0,.725-.725V3.028a1.45,1.45,0,0,0-1.45-1.45Z" transform="translate(-4.865 -0.898)" fill="#2c72f5"/>
    <path id="Path_42256" data-name="Path 42256" d="M17.291,35.946V33.668a.725.725,0,0,0-.725-.725H3a.725.725,0,0,0-.725.725v2.278l1.5,1.5-1.5,1.5v2.278A.725.725,0,0,0,3,41.951H16.566a.725.725,0,0,0,.725-.725V38.949l-1.042-1.5Z" transform="translate(-0.898 -18.752)" fill="#2c72f5"/>
    <path id="Path_42257" data-name="Path 42257" d="M17.716,42.919a1.5,1.5,0,1,0-1.5-1.5A1.5,1.5,0,0,0,17.716,42.919Z" transform="translate(-8.832 -22.721)" fill="#fff"/>
    <path id="Path_42258" data-name="Path 42258" d="M24.038,1.578H21.953a1.45,1.45,0,0,1,1.45,1.45V5.357a.725.725,0,0,1-.725.725h2.085a.725.725,0,0,0,.725-.725V3.028a1.45,1.45,0,0,0-1.45-1.45Z" transform="translate(-12.098 -0.898)" fill="#2c72f5"/>
    <path id="Path_42259" data-name="Path 42259" d="M33.415,35.946V33.668a.725.725,0,0,0-.725-.725H30.605a.725.725,0,0,1,.725.725v7.558a.725.725,0,0,1-.725.725H32.69a.725.725,0,0,0,.725-.725V38.949l-1.042-1.5Z" transform="translate(-17.023 -18.752)" fill="#2c72f5"/>
    <path id="Path_42260" data-name="Path 42260" d="M2.277,39.916h1.5a1.5,1.5,0,1,1,0,3h-1.5Z" transform="translate(-0.898 -22.721)" fill="#e7f2ff"/>
    <path id="Path_42261" data-name="Path 42261" d="M33.159,42.915h-1.5a1.5,1.5,0,0,1,0-3h1.5Z" transform="translate(-16.767 -22.719)" fill="#e7f2ff"/>
    <path id="Path_42262" data-name="Path 42262" d="M32.289,40.033V42.8a1.5,1.5,0,0,0,.583.118h1.5v-3h-1.5a1.494,1.494,0,0,0-.583.117Z" transform="translate(-17.981 -22.721)" fill="#e7f2ff"/>
    <path id="Path_42263" data-name="Path 42263" d="M17.13,68.918a5.537,5.537,0,0,1,.4-1.438.677.677,0,0,0-.481.008l-1.685.674a2.314,2.314,0,0,1-1.725,0l-1.523-.609a3.667,3.667,0,0,0-2.735,0l-1.523.609a2.314,2.314,0,0,1-1.725,0l-1.685-.674a.676.676,0,0,0-.481-.008,5.537,5.537,0,0,1,.4,1.438l1.267.507a3.666,3.666,0,0,0,2.735,0l1.522-.61a2.314,2.314,0,0,1,1.726,0l1.523.609a3.667,3.667,0,0,0,2.735,0Z" transform="translate(-1.857 -38.302)" fill="#e7f2ff"/>
    <path id="Path_42264" data-name="Path 42264" d="M16.822,42.7a2.183,2.183,0,1,0-1.542-.639,2.181,2.181,0,0,0,1.542.639Zm0-3a.822.822,0,1,1-.581.241.821.821,0,0,1,.581-.241Z" transform="translate(-7.936 -21.822)" fill="#1f1f1f"/>
    <path id="Path_42265" data-name="Path 42265" d="M17.069,37.452a6.691,6.691,0,0,0-.2-1.621l-.825-3.3a4.862,4.862,0,0,1,.368-3.352,6.25,6.25,0,0,0,.657-2.782V25.41a3.7,3.7,0,0,0-.388-1.647l-.109-.218a1.4,1.4,0,0,0,.5-1.071V14.917a1.4,1.4,0,0,0-.5-1.071l.109-.218a3.7,3.7,0,0,0,.388-1.647V10.491A2.176,2.176,0,0,0,16.1,8.676L12.6,6.342a.071.071,0,0,1-.031-.059v-.42h.1a1.406,1.406,0,0,0,1.4-1.4V2.13A2.132,2.132,0,0,0,11.937,0H9.24a.68.68,0,0,0,0,1.36h2.7a.771.771,0,0,1,.77.77V4.459a.045.045,0,0,1-.045.045h-1.6V3.682a.68.68,0,0,0-1.36,0V4.5H8.062V3.682a.68.68,0,0,0-1.36,0V4.5H5.1a.045.045,0,0,1-.045-.045V2.13a.771.771,0,0,1,.77-.77h.692a.68.68,0,1,0,0-1.36H5.829A2.132,2.132,0,0,0,3.7,2.13V4.459a1.406,1.406,0,0,0,1.4,1.4h.1v.42a.071.071,0,0,1-.031.059l-3.5,2.334A2.177,2.177,0,0,0,.7,10.491v1.491a3.7,3.7,0,0,0,.388,1.647l.109.218a1.4,1.4,0,0,0-.5,1.071v7.558a1.4,1.4,0,0,0,.5,1.071l-.109.218A3.7,3.7,0,0,0,.7,25.41V26.4a6.251,6.251,0,0,0,.657,2.782,4.863,4.863,0,0,1,.368,3.352L.9,35.83a6.691,6.691,0,0,0-.2,1.621v5.266A3.687,3.687,0,0,0,4.379,46.4h9.008a3.687,3.687,0,0,0,3.682-3.682V37.452ZM2.056,42.038v-2.82l1.706.682a3.667,3.667,0,0,0,2.735,0l1.523-.609a2.314,2.314,0,0,1,1.726,0l1.523.609A3.667,3.667,0,0,0,14,39.9l1.706-.682v2.82H2.056Zm0-24.164h.822a.822.822,0,0,1,0,1.643H2.056Zm.491,6.006H4.08a.68.68,0,0,0,0-1.36H2.1a.045.045,0,0,1-.045-.045v-1.6h.822a2.181,2.181,0,1,0,0-4.362H2.056v-1.6a.045.045,0,0,1,.045-.045H15.664a.045.045,0,0,1,.045.045v1.6h-.822a2.181,2.181,0,1,0,0,4.362h.822v1.6a.045.045,0,0,1-.045.045H6.8a.68.68,0,0,0,0,1.36h8.42l.246.492a2.333,2.333,0,0,1,.245,1.039v.113H2.054V25.41A2.334,2.334,0,0,1,2.3,24.371ZM15.71,19.518h-.822a.822.822,0,0,1,0-1.643h.822ZM14.726,32.86l.2.818-1.432.569a2.313,2.313,0,0,1-1.725,0l-1.523-.609a3.666,3.666,0,0,0-2.735,0l-1.524.609a2.313,2.313,0,0,1-1.725,0l-1.431-.573.2-.818A6.217,6.217,0,0,0,3.208,30.9l.554.221a3.667,3.667,0,0,0,2.735,0L8.02,30.51a2.314,2.314,0,0,1,1.726,0l1.523.609a3.667,3.667,0,0,0,2.735,0l.554-.221a6.215,6.215,0,0,0,.168,1.961ZM2.056,37.452a5.325,5.325,0,0,1,.159-1.292L2.5,35.007l1.259.5a3.666,3.666,0,0,0,2.735,0L8.02,34.9a2.314,2.314,0,0,1,1.726,0l1.523.609a3.667,3.667,0,0,0,2.735,0l1.259-.5.288,1.152a5.326,5.326,0,0,1,.159,1.292v.3l-2.211.884a2.313,2.313,0,0,1-1.725,0l-1.523-.609a3.668,3.668,0,0,0-2.735,0l-1.523.609a2.313,2.313,0,0,1-1.725,0l-2.211-.884v-.3ZM15.684,26.881a4.887,4.887,0,0,1-.487,1.687,6.216,6.216,0,0,0-.31.736L13.5,29.86a2.313,2.313,0,0,1-1.725,0L10.25,29.25a3.667,3.667,0,0,0-2.735,0l-1.523.609a2.313,2.313,0,0,1-1.725,0L2.879,29.3a6.208,6.208,0,0,0-.31-.736,4.888,4.888,0,0,1-.487-1.687h13.6ZM2.056,10.491a.818.818,0,0,1,.366-.684l3.5-2.334a1.427,1.427,0,0,0,.637-1.19v-.42h4.646v.42a1.427,1.427,0,0,0,.637,1.19l3.5,2.334a.819.819,0,0,1,.366.684v1.491a2.335,2.335,0,0,1-.245,1.039l-.246.492H2.547L2.3,13.021a2.334,2.334,0,0,1-.245-1.039ZM13.385,45.04H4.379A2.326,2.326,0,0,1,2.157,43.4H15.608a2.327,2.327,0,0,1-2.222,1.643Z" transform="translate(0.002)" fill="#1f1f1f"/>
  </g>
</svg>
